<svg width="28px" height="28px" viewBox="0 0 28 28" version="1.1" xmlns="http://www.w3.org/2000/svg" xmlns:xlink="http://www.w3.org/1999/xlink">
    <g id="Welcome" stroke="none" stroke-width="1" fill="none" fill-rule="evenodd" fill-opacity="1.0">
        <g id="Method" transform="translate(-160.000000, -53.000000)" fill="#FFFFFF">
            <path d="M173.87037,81 C166.209976,81 160,74.7319865 160,67 C160,59.2680135 166.209976,53 173.87037,53 C181.530764,53 187.740741,59.2680135 187.740741,67 C187.740741,74.7319865 181.530764,81 173.87037,81 Z M178.597656,64.1757812 C178.597656,63.6542943 178.498048,63.1650413 178.298828,62.7080078 C178.099608,62.2509743 177.828615,61.8510759 177.48584,61.5083008 C177.143065,61.1655256 176.743166,60.8945322 176.286133,60.6953125 C175.829099,60.4960928 175.339846,60.3964844 174.818359,60.3964844 L170.318359,60.3964844 L170.318359,62.9189453 L174.818359,62.9189453 C174.994142,62.9189453 175.158202,62.9511716 175.310547,63.015625 C175.462891,63.0800784 175.596191,63.169433 175.710449,63.2836914 C175.824708,63.3979498 175.914062,63.5312492 175.978516,63.6835938 C176.042969,63.8359383 176.075195,63.9999991 176.075195,64.1757812 C176.075195,64.3515634 176.042969,64.5170891 175.978516,64.6723633 C175.914062,64.8276375 175.824708,64.9624018 175.710449,65.0766602 C175.596191,65.1909185 175.462891,65.2802731 175.310547,65.3447266 C175.158202,65.40918 174.994142,65.4414062 174.818359,65.4414062 L173.552734,65.4414062 C173.031247,65.4414062 172.541994,65.5395498 172.084961,65.7358398 C171.627927,65.9321299 171.228029,66.2016584 170.885254,66.5444336 C170.542479,66.8872087 170.271485,67.2885719 170.072266,67.7485352 C169.873046,68.2084984 169.773438,68.6992161 169.773438,69.2207031 L169.773438,73 L178.254883,73 L178.254883,70.4775391 L172.295898,70.4775391 L172.295898,69.2207031 C172.295898,69.044921 172.328125,68.8808601 172.392578,68.7285156 C172.457032,68.5761711 172.546386,68.4428717 172.660645,68.3286133 C172.774903,68.2143549 172.908202,68.1250003 173.060547,68.0605469 C173.212891,67.9960934 173.376952,67.9638672 173.552734,67.9638672 L174.818359,67.9638672 C175.339846,67.9638672 175.829099,67.8642588 176.286133,67.6650391 C176.743166,67.4658193 177.143065,67.1948259 177.48584,66.8520508 C177.828615,66.5092756 178.099608,66.1079125 178.298828,65.6479492 C178.498048,65.187986 178.597656,64.6972682 178.597656,64.1757812 Z" id="Combined-Shape-Copy-2"></path>
        </g>
    </g>
</svg>