<svg width="28px" height="28px" viewBox="0 0 28 28" version="1.1" xmlns="http://www.w3.org/2000/svg" xmlns:xlink="http://www.w3.org/1999/xlink">
    <g id="Welcome" stroke="none" stroke-width="1" fill="none" fill-rule="evenodd" fill-opacity="1.0">
        <g id="Method" transform="translate(-107.000000, -53.000000)" fill="#FFFFFF">
            <path d="M120.87037,81 C113.209976,81 107,74.7319865 107,67 C107,59.2680135 113.209976,53 120.87037,53 C128.530764,53 134.740741,59.2680135 134.740741,67 C134.740741,72.4703964 131.63228,77.2079877 127.100941,79.5114391 C125.227579,80.4637398 123.11102,81 120.87037,81 Z M125.703125,69.2207031 C125.703125,68.7578102 125.618165,68.3081077 125.448242,67.871582 C125.278319,67.4350564 125.038087,67.043947 124.727539,66.6982422 C125.038087,66.3525373 125.278319,65.961428 125.448242,65.5249023 C125.618165,65.0883767 125.703125,64.6386742 125.703125,64.1757812 C125.703125,63.6542943 125.603517,63.1650413 125.404297,62.7080078 C125.205077,62.2509743 124.934084,61.8510759 124.591309,61.5083008 C124.248533,61.1655256 123.848635,60.8945322 123.391602,60.6953125 C122.934568,60.4960928 122.445315,60.3964844 121.923828,60.3964844 L116.878906,60.3964844 L116.878906,62.9189453 L121.923828,62.9189453 C122.09961,62.9189453 122.263671,62.9511716 122.416016,63.015625 C122.56836,63.0800784 122.70166,63.169433 122.815918,63.2836914 C122.930176,63.3979498 123.019531,63.5312492 123.083984,63.6835938 C123.148438,63.8359383 123.180664,63.9999991 123.180664,64.1757812 C123.180664,64.3515634 123.148438,64.5170891 123.083984,64.6723633 C123.019531,64.8276375 122.930176,64.9624018 122.815918,65.0766602 C122.70166,65.1909185 122.56836,65.2802731 122.416016,65.3447266 C122.263671,65.40918 122.09961,65.4414062 121.923828,65.4414062 L118.487305,65.4414062 L118.487305,67.9638672 L121.923828,67.9638672 C122.09961,67.9638672 122.263671,67.9960934 122.416016,68.0605469 C122.56836,68.1250003 122.70166,68.2143549 122.815918,68.3286133 C122.930176,68.4428717 123.019531,68.5761711 123.083984,68.7285156 C123.148438,68.8808601 123.180664,69.044921 123.180664,69.2207031 C123.180664,69.3964853 123.148438,69.5605461 123.083984,69.7128906 C123.019531,69.8652351 122.930176,69.9985346 122.815918,70.112793 C122.70166,70.2270514 122.56836,70.3164059 122.416016,70.3808594 C122.263671,70.4453128 122.09961,70.4775391 121.923828,70.4775391 L116.878906,70.4775391 L116.878906,73 L121.923828,73 C122.445315,73 122.934568,72.9003916 123.391602,72.7011719 C123.848635,72.5019521 124.248533,72.2309587 124.591309,71.8881836 C124.934084,71.5454084 125.205077,71.1455101 125.404297,70.6884766 C125.603517,70.231443 125.703125,69.7421901 125.703125,69.2207031 Z" id="Combined-Shape"></path>
        </g>
    </g>
</svg>